<?xml version="1.0" encoding="UTF-8"?>
<svg id="Layer_1" data-name="Layer 1" xmlns="http://www.w3.org/2000/svg" viewBox="0 0 376.82 149.24">
  <defs>
    <style>
      .cls-1 {
        fill: #fff;
        stroke-width: 0px;
      }
    </style>
  </defs>
  <path class="cls-1" d="m147.62,126.21l-8.66,21.8h4.07l1.5-3.78h7.95l1.5,3.78h4.07l-8.66-21.8h-1.77Zm.89,8.02l2.47,6.22h-4.95l2.48-6.22Z"/>
  <polygon class="cls-1" points="185.13 126.21 185.13 148.01 199.42 148.01 199.42 144.23 188.91 144.23 188.91 139 197.09 139 197.09 135.22 188.91 135.22 188.91 129.98 199.42 129.98 199.42 126.21 185.13 126.21"/>
  <polygon class="cls-1" points="222.36 126.21 222.36 129.98 228.02 129.98 228.02 148.01 231.8 148.01 231.8 129.98 237.47 129.98 237.47 126.21 222.36 126.21"/>
  <polygon class="cls-1" points="215.33 126.21 215.33 140.14 204.41 126.21 202.64 126.21 202.64 148 206.42 148.01 206.42 135.33 217.33 149.24 219.11 149.24 219.11 126.21 215.33 126.21"/>
  <path class="cls-1" d="m181.88,148.01l-.19-.3-6.84-10.7,7.03-10.73h-4.58l-5.28,8.31c-.08.12-.17.25-.28.44l-.02.03h-1.02l-.05-.07c-.1-.15-.19-.29-.23-.35l-5.39-8.36h-4.82l7.38,10.72-7.18,10.7-.2.31h4.87l.19-.31,5.09-8.46c.05-.07.18-.27.3-.45l.05-.07h1.01l.05.08.3.48,5.04,8.42.19.31h4.58Z"/>
  <g>
    <path class="cls-1" d="m180.89,21.89c4.04,0,7.32-3.44,7.32-7.68s-3.27-7.68-7.32-7.68-7.32,3.44-7.32,7.68,3.27,7.68,7.32,7.68Z"/>
    <path class="cls-1" d="m375.24,91.73l-5.56-2.93c-1.3-.69-2.94-.33-3.79.87-1.95,2.75-3.79,3.97-6.22,3.97-3.46,0-5.77-3.1-5.77-8.53V26.95h14.23c2.08,0,3.76-1.77,3.76-3.95v-4.79c0-2.18-1.69-3.95-3.76-3.95h-14.23V3.95c0-2.18-1.69-3.95-3.76-3.95h-4.18c-2.08,0-3.76,1.77-3.76,3.95v24.11l-31.75,59.18c-1.62,3.02-2.8,5.62-5.28,5.62-2.64,0-2.97-2.52-2.97-5.82v-32.9c0-11.83-4.62-20.16-15-20.16-7.09,0-12.86,3.68-18.47,13.96-6.59,12.41-13.19,24.81-19.78,37.22v-31.02c0-11.83-4.78-20.16-15-20.16-7.26,0-13.03,3.68-18.46,13.96-7.06,13.27-14.12,26.53-21.18,39.8-1.61,3.03-2.79,5.12-5.26,5.12-2.64,0-3.14-2.02-3.14-5.31v-48.45c0-2.18-1.69-3.95-3.76-3.95h-4.77c-1.36,0-2.61.77-3.28,2.01-8.96,16.69-17.91,33.39-26.87,50.08-1.62,3.02-2.8,5.62-5.27,5.62-2.64,0-2.97-2.52-2.97-5.82v-32.9c0-11.82-4.62-20.16-15-20.16-7.09,0-13.02,3.68-18.47,13.96-6.6,12.41-13.19,24.81-19.79,37.22v-31.02c0-11.82-4.61-20.16-15-20.16-7.09,0-12.86,3.68-18.47,13.96-6.59,12.41-13.19,24.81-19.78,37.22v-31.02c0-11.82-4.78-20.16-15.01-20.16-6.59,0-12.01,3.15-17.03,11.43-.85,1.41-.36,3.25,1.09,4.01l5.71,3.01c1.31.69,2.95.27,3.73-1,1.44-2.35,2.87-3.69,5.18-3.69,3.13,0,4.45,2.13,4.45,7.56v41.29c0,5.86,4.04,10.61,9.03,10.61,3.12,0,6.02-1.89,7.67-5.01,8.34-15.76,16.68-31.52,25.01-47.28,2.47-4.46,3.79-7.17,7.09-7.17s4.45,2.13,4.45,7.56v41.29c0,5.86,4.04,10.61,9.03,10.61h0c3.12,0,6.02-1.89,7.67-5.01,8.34-15.76,16.67-31.52,25.01-47.28,2.31-4.46,3.79-7.17,6.92-7.17,3.3,0,4.62,2.13,4.62,7.56v34.84c0,8.92,3.62,17.06,13.52,17.06,7.09,0,11.87-3.69,16.49-12.41l17.09-32.14v27.48c0,8.91,3.62,17.06,13.51,17.06,6.68,0,11.55-3.12,15.68-10.94,7.38-13.95,14.76-27.4,22.14-41.35,2.31-4.46,3.79-7.17,7.09-7.17s4.45,2.13,4.45,7.56v41.28c0,5.86,4.04,10.62,9.03,10.62h0c3.12,0,6.02-1.89,7.66-5.01,8.34-15.76,16.67-31.52,25.01-47.28,2.47-4.46,3.79-7.17,7.09-7.17s4.45,2.13,4.45,7.56v34.84c0,8.92,3.62,17.06,13.52,17.06,7.09,0,11.87-3.69,16.49-12.41,5.03-9.46,10.06-18.92,21.86-41.1v34.12c0,9.88,4.62,19.38,16.98,19.38,7.09,0,12.52-3.89,17.2-11.25.93-1.47.41-3.42-1.13-4.22Z"/>
  </g>
</svg>