<svg version="1.1" id="Layer_1" xmlns="http://www.w3.org/2000/svg" xmlns:xlink="http://www.w3.org/1999/xlink" x="0px" y="0px"
	 width="100%" viewBox="0 0 412 402" enable-background="new 0 0 412 402" xml:space="preserve">
<path fill="#FFFFFF" opacity="1.000000" stroke="none" 
	d="
M237.000000,403.000000 
	C158.000000,403.000000 79.500000,403.000000 1.000000,403.000000 
	C1.000000,269.000000 1.000000,135.000000 1.000000,1.000000 
	C138.333328,1.000000 275.666656,1.000000 413.000000,1.000000 
	C413.000000,135.000000 413.000000,269.000000 413.000000,403.000000 
	C354.500000,403.000000 296.000000,403.000000 237.000000,403.000000 
M50.710480,343.172699 
	C41.612434,356.745453 32.514389,370.318237 22.786100,384.831207 
	C25.782675,384.831207 27.248676,384.831207 28.714676,384.831207 
	C52.210171,384.831238 75.706200,384.753754 99.200577,384.915680 
	C102.678764,384.939667 104.468582,383.741028 106.220703,380.817780 
	C134.537979,333.572815 163.000000,286.414642 191.390274,239.213409 
	C198.716766,227.032532 198.656631,227.112747 212.554718,226.970459 
	C216.165329,226.933487 218.224319,228.082916 220.100922,231.225601 
	C249.704666,280.802155 279.484192,330.273773 309.060791,379.866455 
	C311.314087,383.644592 313.716919,385.000488 318.128448,384.946808 
	C339.287903,384.689392 360.452271,384.831207 381.614868,384.831207 
	C383.364838,384.831207 385.114777,384.831207 387.772400,384.831207 
	C386.487335,382.572754 385.759583,381.151703 384.904694,379.811768 
	C347.302094,320.871490 309.700378,261.930664 272.037109,203.029190 
	C270.284210,200.287842 269.411652,198.165527 271.519775,194.966232 
	C305.506409,143.388275 339.370544,91.729561 373.236084,40.071888 
	C378.116638,32.627193 382.860229,25.092674 388.060028,16.987431 
	C385.554199,16.987431 383.921265,16.987432 382.288361,16.987432 
	C360.625854,16.987423 338.961731,17.121210 317.302246,16.865360 
	C313.354156,16.818724 311.429535,18.287613 309.481110,21.366646 
	C281.357544,65.809601 252.877930,110.030182 225.133514,154.707611 
	C219.686096,163.479721 214.054337,168.149353 203.502457,166.369034 
	C200.213974,165.814194 198.184006,165.013443 196.396713,162.190186 
	C188.117447,149.112045 179.587860,136.192734 171.205521,123.179451 
	C149.482407,89.455139 127.744385,55.740208 106.151596,21.932575 
	C103.879890,18.375774 101.569473,16.794056 97.082138,16.851820 
	C74.256973,17.145645 51.425980,16.987148 28.597027,16.987032 
	C26.996805,16.987024 25.396584,16.987032 22.964630,16.987032 
	C24.315645,19.016487 25.185665,20.362093 26.093554,21.681643 
	C65.539330,79.013222 104.953506,136.366638 144.520844,193.614197 
	C146.991119,197.188278 147.125412,199.601120 144.661789,203.252274 
	C113.373718,249.621964 82.256760,296.107117 50.710480,343.172699 
z"/>
<path fill="#595A5C" opacity="1.000000" stroke="none" 
	d="
M50.903351,342.867798 
	C82.256760,296.107117 113.373718,249.621964 144.661789,203.252274 
	C147.125412,199.601120 146.991119,197.188278 144.520844,193.614197 
	C104.953506,136.366638 65.539330,79.013222 26.093554,21.681643 
	C25.185665,20.362093 24.315645,19.016487 22.964630,16.987032 
	C25.396584,16.987032 26.996805,16.987024 28.597027,16.987032 
	C51.425980,16.987148 74.256973,17.145645 97.082138,16.851820 
	C101.569473,16.794056 103.879890,18.375774 106.151596,21.932575 
	C127.744385,55.740208 149.482407,89.455139 171.205521,123.179451 
	C179.587860,136.192734 188.117447,149.112045 196.396713,162.190186 
	C198.184006,165.013443 200.213974,165.814194 203.502457,166.369034 
	C214.054337,168.149353 219.686096,163.479721 225.133514,154.707611 
	C252.877930,110.030182 281.357544,65.809601 309.481110,21.366646 
	C311.429535,18.287613 313.354156,16.818724 317.302246,16.865360 
	C338.961731,17.121210 360.625854,16.987423 382.288361,16.987432 
	C383.921265,16.987432 385.554199,16.987431 388.060028,16.987431 
	C382.860229,25.092674 378.116638,32.627193 373.236084,40.071888 
	C339.370544,91.729561 305.506409,143.388275 271.519775,194.966232 
	C269.411652,198.165527 270.284210,200.287842 272.037109,203.029190 
	C309.700378,261.930664 347.302094,320.871490 384.904694,379.811768 
	C385.759583,381.151703 386.487335,382.572754 387.772400,384.831207 
	C385.114777,384.831207 383.364838,384.831207 381.614868,384.831207 
	C360.452271,384.831207 339.287903,384.689392 318.128448,384.946808 
	C313.716919,385.000488 311.314087,383.644592 309.060791,379.866455 
	C279.484192,330.273773 249.704666,280.802155 220.100922,231.225601 
	C218.224319,228.082916 216.165329,226.933487 212.554718,226.970459 
	C198.656631,227.112747 198.716766,227.032532 191.390274,239.213409 
	C163.000000,286.414642 134.537979,333.572815 106.220703,380.817780 
	C104.468582,383.741028 102.678764,384.939667 99.200577,384.915680 
	C75.706200,384.753754 52.210171,384.831238 28.714676,384.831207 
	C27.248676,384.831207 25.782675,384.831207 22.786100,384.831207 
	C32.514389,370.318237 41.612434,356.745453 50.903351,342.867798 
z"/>
</svg>